<?xml version="1.0" encoding="UTF-8"?>
<svg id="Calque_2" data-name="Calque 2" xmlns="http://www.w3.org/2000/svg" viewBox="0 0 356.81 484.05">
  <defs>
    <style>
      .cls-1 {
        fill: #5b57fe;
      }

      .cls-2 {
        fill: #3a3b5a;
      }
    </style>
  </defs>
  <g id="calque_test" data-name="calque test">
    <g>
      <path class="cls-1" d="M134.84,134.84v349.21H0V0c37.24,0,70.94,15.09,95.35,39.49,24.4,24.41,39.49,58.11,39.49,95.35Z"/>
      <path class="cls-1" d="M95.35,39.49C70.94,15.09,37.24,0,0,0v484.05h134.84V134.84c0-37.24-15.09-70.94-39.49-95.35Z"/>
      <path class="cls-1" d="M356.81,359.58v124.47h-221.97l10-10.52,38.33-40.31c45.19-47.53,108.06-74.19,173.64-73.64Z"/>
      <path class="cls-2" d="M344.46,98.89c-8.24-20.75-20-38.49-35.26-53.25-15.28-14.75-33.66-26.04-55.15-33.88C232.55,3.92,208.34,0,181.42,0H52.91c31.05,12.23,56.89,34.89,73.18,63.63,19.96,35.21,30.47,57.38,70.94,57.38h.52c18.09,0,32.15,4.62,42.19,13.83,10.04,9.23,15.07,22.13,15.07,38.73s-4.62,28.81-13.86,38.03c-.31.31-.62.62-.93.92-7.55,7.5-17.28,12.3-27.77,14.13-38.31,6.7-67.43,40.13-67.43,80.36v29.06h32.96c27.73,0,52.64-3.81,74.74-11.41,22.09-7.61,40.88-18.67,56.36-33.19,15.46-14.53,27.32-32.04,35.56-52.56,8.23-20.5,12.35-43.91,12.35-70.18s-4.12-49.1-12.35-69.84Z"/>
    </g>
  </g>
</svg>